External Loads File
version=1
nRows=94
nColumns=13
Range=5.000000e-03-10 seconds
endheader
time 	forceRightX 	forceRightY 	forceRightZ 	pointRightX 	pointRightY 	pointRightZ 	forceLeftX 	forceLeftY 	forceLeftZ 	pointLeftX 	pointLeftY 	pointLeftZ 		
0.005000 23.522906 132.245242 -0.000000 0.396942 0.387324 -0.106890 43.846520 167.769970 -0.000000 0.095174 0.251639 -0.346053
0.010000 23.243099 131.764981 -0.000000 0.396927 0.387357 -0.106908 44.622867 168.069752 -0.000000 0.095187 0.251627 -0.346055
0.015000 22.974589 131.321427 -0.000000 0.396928 0.387377 -0.106906 45.324844 168.292840 -0.000000 0.095208 0.251596 -0.346049
0.020000 22.815226 130.921004 -0.000000 0.396930 0.387255 -0.106914 45.993172 168.399025 -0.000000 0.095148 0.251549 -0.345092
0.025000 22.601494 130.606962 -0.000000 0.396991 0.387585 -0.107168 46.367821 168.447876 -0.000000 0.095150 0.251627 -0.345128
0.030000 22.489094 130.347098 -0.000000 0.397001 0.387661 -0.107105 46.665059 168.385362 -0.000000 0.095177 0.251643 -0.345185
0.035000 22.389107 130.141358 -0.000000 0.397011 0.387698 -0.107100 46.831866 168.237840 -0.000000 0.095193 0.251631 -0.345223
0.040000 22.269072 129.976160 -0.000000 0.397014 0.387713 -0.107110 46.904713 168.017663 -0.000000 0.095204 0.251622 -0.345241
0.045000 22.095355 129.838270 -0.000000 0.397019 0.387757 -0.107112 46.906047 167.760872 -0.000000 0.095217 0.251620 -0.345236
0.050000 21.884214 129.715749 -0.000000 0.397025 0.387796 -0.107112 46.884080 167.506671 -0.000000 0.095214 0.251594 -0.345233
0.055000 21.673549 129.605608 -0.000000 0.397019 0.387821 -0.107122 46.886372 167.286465 -0.000000 0.095217 0.251580 -0.345249
0.060000 21.468362 129.518474 -0.000000 0.397012 0.387859 -0.107132 46.917221 167.132045 -0.000000 0.095229 0.251557 -0.345245
0.065000 21.291163 129.470819 -0.000000 0.397000 0.387903 -0.107102 46.993940 167.062111 -0.000000 0.095236 0.251528 -0.345257
0.070000 21.184409 129.483544 -0.000000 0.396992 0.387945 -0.107107 47.130828 167.083711 -0.000000 0.095239 0.251517 -0.345248
0.075000 21.181944 129.578175 -0.000000 0.396981 0.387957 -0.107104 47.319239 167.195741 -0.000000 0.095227 0.251504 -0.345253
0.080000 21.273076 129.773426 -0.000000 0.396963 0.387996 -0.107115 47.511620 167.393030 -0.000000 0.095226 0.251489 -0.345239
0.085000 21.451244 130.067200 -0.000000 0.396949 0.388043 -0.107125 47.702091 167.642494 -0.000000 0.095219 0.251465 -0.345248
0.090000 21.682682 130.442047 -0.000000 0.396923 0.388086 -0.107119 47.880673 167.901860 -0.000000 0.095221 0.251452 -0.345241
0.095000 21.921553 130.874932 -0.000000 0.396909 0.388125 -0.107129 48.035874 168.138515 -0.000000 0.095223 0.251424 -0.345238
0.100000 22.126899 131.337286 -0.000000 0.396882 0.388188 -0.107125 48.165841 168.341968 -0.000000 0.095213 0.251399 -0.345223
0.105000 22.274840 131.788624 -0.000000 0.396857 0.388232 -0.107128 48.273149 168.512301 -0.000000 0.095216 0.251354 -0.345222
0.110000 22.344173 132.182409 -0.000000 0.396834 0.388264 -0.107114 48.330672 168.647112 -0.000000 0.095227 0.251298 -0.345218
0.115000 22.327630 132.479862 -0.000000 0.396802 0.388323 -0.107127 48.313063 168.736340 -0.000000 0.095234 0.251290 -0.345240
0.120000 22.209364 132.670982 -0.000000 0.396789 0.388370 -0.107116 48.182295 168.783298 -0.000000 0.095249 0.251240 -0.345242
0.125000 22.020856 132.760610 -0.000000 0.396757 0.388398 -0.107110 47.946144 168.780257 -0.000000 0.095258 0.251187 -0.345239
0.130000 21.779519 132.759286 -0.000000 0.396747 0.388446 -0.107120 47.580255 168.714313 -0.000000 0.095274 0.251154 -0.345228
0.135000 21.491936 132.675534 -0.000000 0.396733 0.388478 -0.107115 47.068589 168.571753 -0.000000 0.095299 0.251107 -0.345243
0.140000 21.174137 132.517025 -0.000000 0.396721 0.388517 -0.107123 46.457136 168.351478 -0.000000 0.095315 0.251083 -0.345252
0.145000 20.844020 132.297503 -0.000000 0.396713 0.388539 -0.107126 45.818171 168.070321 -0.000000 0.095321 0.251062 -0.345265
0.150000 20.535820 132.039587 -0.000000 0.396716 0.388568 -0.107126 45.218354 167.746865 -0.000000 0.095340 0.251056 -0.345244
0.155000 20.302869 131.771337 -0.000000 0.396721 0.388584 -0.107129 44.705476 167.397930 -0.000000 0.095345 0.251034 -0.345243
0.160000 20.191687 131.519794 -0.000000 0.396719 0.388600 -0.107131 44.300408 167.045843 -0.000000 0.095345 0.251015 -0.345238
0.165000 20.218602 131.304131 -0.000000 0.396738 0.388610 -0.107134 44.010185 166.713698 -0.000000 0.095346 0.250984 -0.345236
0.170000 20.374227 131.127756 -0.000000 0.396744 0.388615 -0.107121 43.858634 166.415827 -0.000000 0.095343 0.251008 -0.345236
0.175000 20.573107 130.991208 -0.000000 0.396754 0.388604 -0.107127 43.811772 166.182332 -0.000000 0.095341 0.250999 -0.345237
0.180000 20.764199 130.891009 -0.000000 0.396763 0.388594 -0.107131 43.888433 166.032782 -0.000000 0.095340 0.251000 -0.345241
0.185000 20.913747 130.831693 -0.000000 0.396771 0.388598 -0.107138 44.097417 165.982962 -0.000000 0.095334 0.251009 -0.345233
0.190000 21.029991 130.820614 -0.000000 0.396792 0.388595 -0.107136 44.428498 166.031826 -0.000000 0.095330 0.251014 -0.345231
0.195000 21.152965 130.864401 -0.000000 0.396806 0.388579 -0.107151 44.841143 166.162543 -0.000000 0.095322 0.251036 -0.345244
0.200000 21.282942 130.972889 -0.000000 0.396800 0.388581 -0.107148 45.235416 166.365256 -0.000000 0.095321 0.251035 -0.345245
0.205000 21.448996 131.140748 -0.000000 0.396800 0.388566 -0.107151 45.606473 166.613722 -0.000000 0.095319 0.251041 -0.345243
0.210000 21.599439 131.362509 -0.000000 0.396796 0.388579 -0.107151 45.915086 166.911159 -0.000000 0.095319 0.251023 -0.345228
0.215000 21.746233 131.609762 -0.000000 0.396792 0.388575 -0.107135 46.244050 167.251066 -0.000000 0.095324 0.251045 -0.345250
0.220000 21.832078 131.860111 -0.000000 0.396767 0.388570 -0.107142 46.606642 167.666725 -0.000000 0.095323 0.251037 -0.345237
0.225000 21.862839 132.088225 -0.000000 0.396765 0.388582 -0.107143 47.082174 168.173428 -0.000000 0.095315 0.251048 -0.345232
0.230000 21.824469 132.282423 -0.000000 0.396752 0.388568 -0.107142 47.675698 168.775882 -0.000000 0.095333 0.251035 -0.345239
0.235000 21.732840 132.426606 -0.000000 0.396734 0.388556 -0.107120 48.389445 169.441721 -0.000000 0.095319 0.251031 -0.345234
0.240000 21.595370 132.505475 -0.000000 0.396727 0.388551 -0.107126 49.201974 170.130369 -0.000000 0.095326 0.251056 -0.345226
0.245000 21.417476 132.520039 -0.000000 0.396722 0.388550 -0.107137 50.066926 170.809475 -0.000000 0.095342 0.251037 -0.345246
0.250000 21.309601 132.483914 -0.000000 0.396733 0.388514 -0.107115 51.027393 171.420039 -0.000000 0.095339 0.251054 -0.345238
0.255000 21.285304 132.441479 -0.000000 0.396735 0.388497 -0.107122 51.973517 171.943425 -0.000000 0.095336 0.251054 -0.345228
0.260000 21.386722 132.413801 -0.000000 0.396742 0.388473 -0.107115 52.858241 172.333898 -0.000000 0.095336 0.251070 -0.345241
0.265000 21.579229 132.401253 -0.000000 0.396767 0.388447 -0.107118 53.600517 172.555166 -0.000000 0.095339 0.251092 -0.345230
0.270000 21.825355 132.386281 -0.000000 0.396797 0.388400 -0.107126 54.179883 172.583192 -0.000000 0.095337 0.251142 -0.345250
0.275000 22.051639 132.357527 -0.000000 0.396830 0.388362 -0.107121 54.571297 172.450370 -0.000000 0.095325 0.251167 -0.345249
0.280000 22.243992 132.304880 -0.000000 0.396856 0.388331 -0.107120 54.831632 172.198592 -0.000000 0.095319 0.251209 -0.345241
0.285000 22.407744 132.228439 -0.000000 0.396886 0.388259 -0.107122 55.008191 171.874113 -0.000000 0.095309 0.251243 -0.345240
0.290000 22.548281 132.136281 -0.000000 0.396928 0.388229 -0.107126 55.118104 171.532278 -0.000000 0.095302 0.251317 -0.345233
0.295000 22.675394 132.037880 -0.000000 0.396960 0.388186 -0.107108 55.190596 171.228123 -0.000000 0.095281 0.251349 -0.345242
0.300000 22.808132 131.940954 -0.000000 0.396992 0.388142 -0.107117 55.280969 170.989392 -0.000000 0.095258 0.251394 -0.345234
0.305000 22.928105 131.858980 -0.000000 0.397014 0.388097 -0.107109 55.383075 170.827196 -0.000000 0.095244 0.251452 -0.345226
0.310000 22.989862 131.806179 -0.000000 0.397045 0.388082 -0.107108 55.442049 170.751654 -0.000000 0.095233 0.251466 -0.345224
0.315000 23.023862 131.775040 -0.000000 0.397059 0.388036 -0.107117 55.515652 170.747450 -0.000000 0.095222 0.251520 -0.345233
0.320000 22.989890 131.769965 -0.000000 0.397068 0.387982 -0.107111 55.570163 170.836898 -0.000000 0.095196 0.251540 -0.345238
0.325000 22.893518 131.800210 -0.000000 0.397079 0.387965 -0.107122 55.587370 171.020600 -0.000000 0.095178 0.251550 -0.345218
0.330000 22.774044 131.875543 -0.000000 0.397093 0.387952 -0.107117 55.552689 171.264259 -0.000000 0.095173 0.251549 -0.345221
0.335000 22.661134 131.994841 -0.000000 0.397105 0.387943 -0.107126 55.446721 171.509087 -0.000000 0.095169 0.251575 -0.345224
0.340000 22.528329 132.149270 -0.000000 0.397097 0.387933 -0.107121 55.213656 171.711011 -0.000000 0.095169 0.251577 -0.345220
0.345000 22.370129 132.318823 -0.000000 0.397099 0.387936 -0.107111 54.852594 171.832868 -0.000000 0.095174 0.251560 -0.345219
0.350000 22.198010 132.481119 -0.000000 0.397076 0.387942 -0.107116 54.398670 171.851272 -0.000000 0.095185 0.251570 -0.345228
0.355000 21.982871 132.623240 -0.000000 0.397064 0.387960 -0.107101 53.847229 171.776120 -0.000000 0.095191 0.251532 -0.345207
0.360000 21.744946 132.727230 -0.000000 0.397036 0.387972 -0.107086 53.266886 171.615762 -0.000000 0.095220 0.251504 -0.345228
0.365000 21.498516 132.783611 -0.000000 0.397022 0.388004 -0.107078 52.700920 171.403492 -0.000000 0.095238 0.251460 -0.345235
0.370000 21.310182 132.789580 -0.000000 0.397002 0.388035 -0.107093 52.201975 171.162774 -0.000000 0.095262 0.251448 -0.345244
0.375000 21.206539 132.764422 -0.000000 0.396977 0.388079 -0.107094 51.719154 170.922290 -0.000000 0.095281 0.251402 -0.345247
0.380000 21.236385 132.729575 -0.000000 0.396957 0.388108 -0.107097 51.245832 170.680154 -0.000000 0.095302 0.251349 -0.345247
0.385000 21.393949 132.710005 -0.000000 0.396944 0.388130 -0.107096 50.765229 170.435162 -0.000000 0.095320 0.251308 -0.345254
0.390000 21.654713 132.722536 -0.000000 0.396939 0.388149 -0.107098 50.271695 170.179049 -0.000000 0.095330 0.251314 -0.345242
0.395000 21.945981 132.778109 -0.000000 0.396944 0.388157 -0.107102 49.696848 169.912722 -0.000000 0.095338 0.251279 -0.345249
0.400000 22.258706 132.861208 -0.000000 0.396951 0.388139 -0.107103 49.058532 169.606324 -0.000000 0.095361 0.251290 -0.345253
0.405000 22.510120 132.955645 -0.000000 0.396979 0.388160 -0.107095 48.306749 169.263351 -0.000000 0.095351 0.251269 -0.345249
0.410000 22.715084 133.024819 -0.000000 0.397009 0.388161 -0.107107 47.541176 168.873602 -0.000000 0.095354 0.251317 -0.345254
0.415000 22.816586 133.047611 -0.000000 0.397052 0.388130 -0.107113 46.777778 168.476206 -0.000000 0.095332 0.251314 -0.345246
0.420000 22.808692 133.004271 -0.000000 0.397079 0.388109 -0.107120 46.083421 168.106673 -0.000000 0.095325 0.251337 -0.345245
0.425000 22.709238 132.886769 -0.000000 0.397119 0.388089 -0.107143 45.505935 167.796048 -0.000000 0.095315 0.251361 -0.345254
0.430000 22.545870 132.700851 -0.000000 0.397145 0.388071 -0.107146 45.039985 167.560393 -0.000000 0.095301 0.251368 -0.345253
0.435000 22.367995 132.459720 -0.000000 0.397175 0.388065 -0.107145 44.681854 167.392435 -0.000000 0.095287 0.251389 -0.345252
0.440000 22.187068 132.192101 -0.000000 0.397206 0.388075 -0.107161 44.402365 167.287017 -0.000000 0.095271 0.251403 -0.345236
0.445000 22.012853 131.930094 -0.000000 0.397219 0.388064 -0.107150 44.196664 167.225522 -0.000000 0.095267 0.251416 -0.345245
0.450000 21.816402 131.703747 -0.000000 0.397226 0.388073 -0.107163 44.015275 167.187235 -0.000000 0.095260 0.251420 -0.345234
0.455000 21.576863 131.529500 -0.000000 0.397222 0.388101 -0.107149 43.807655 167.148550 -0.000000 0.095252 0.251383 -0.345229
0.460000 21.316123 131.408964 -0.000000 0.397220 0.388144 -0.107154 43.569064 167.083366 -0.000000 0.095259 0.251358 -0.345218
0.465000 21.044420 131.341653 -0.000000 0.397193 0.388174 -0.107140 43.275198 166.977255 -0.000000 0.095275 0.251330 -0.345229
0.470000 20.779053 131.327403 -0.000000 0.397175 0.388209 -0.107142 42.897183 166.819974 -0.000000 0.095284 0.251283 -0.345237
